<svg width="63" height="43" fill="none" xmlns="http://www.w3.org/2000/svg"><path d="M30.333 0h-3.11v42.232h3.11V0z" fill="#FF9372"/><path d="M36.556 0h-3.111v42.232h3.11V0z" fill="#FF91FF"/><path d="M42.311 23.036H39.2v19.196h3.111V23.036z" fill="#7894FF"/><path fill-rule="evenodd" clip-rule="evenodd" d="M42.544 19.427c0-.922-.777-1.69-1.788-1.69-1.011 0-1.79.768-1.79 1.69 0 .921.779 1.69 1.79 1.69 1.01.076 1.788-.692 1.788-1.69z" fill="#7894FF"/><path d="M23.878 23.036h-3.111v19.196h3.11V23.036z" fill="#FF502C"/><path fill-rule="evenodd" clip-rule="evenodd" d="M24.189 19.427c0-.922-.778-1.69-1.789-1.69s-1.789.768-1.789 1.69c0 .921.778 1.69 1.789 1.69s1.789-.692 1.789-1.69zM63 33.402H47.989c.156 1.766.622 3.148 1.322 4.146 1.167 1.69 2.878 2.534 5.056 2.534 2.489 0 4.2-1.228 4.977-3.686h3.112c-1.245 4.07-4.045 6.143-8.4 6.143-3.034 0-5.367-.998-7-2.918-1.556-1.766-2.334-4.07-2.334-6.91 0-3.225.934-5.76 2.8-7.525 1.634-1.613 3.734-2.38 6.223-2.38 2.333 0 4.355.69 5.988 2.073 1.634 1.382 2.567 3.301 2.956 5.758.233.768.233 1.69.311 2.765zm-3.267-2.227c-.155-1.459-.544-2.61-1.244-3.532-1.089-1.536-2.645-2.304-4.589-2.304-1.322 0-2.489.384-3.5 1.152-1.322.998-2.1 2.534-2.411 4.684h11.744z" fill="#FF502C"/><path fill-rule="evenodd" clip-rule="evenodd" d="M3.267 0v25.57c1.71-2.15 3.889-3.302 6.533-3.302 2.644 0 4.667.921 6.222 2.764 1.556 1.843 2.334 4.3 2.334 7.295 0 3.148-.856 5.682-2.49 7.678-1.477 1.69-3.422 2.611-5.91 2.611-2.645 0-4.9-.998-6.612-3.071v2.687H0V0h3.267zm5.989 24.879c-1.79 0-3.267.69-4.434 2.15-1.089 1.305-1.555 3.148-1.555 5.682 0 2.15.466 3.762 1.322 4.99 1.167 1.613 2.8 2.381 4.9 2.381 1.944 0 3.422-.69 4.278-2.15.933-1.382 1.322-3.225 1.322-5.452 0-2.15-.467-3.916-1.322-5.298-1.011-1.536-2.49-2.303-4.511-2.303z" fill="#7894FF"/></svg>